<svg width="63" height="66" viewBox="0 0 63 66" fill="none" xmlns="http://www.w3.org/2000/svg">
<path d="M0.75 65.5V59H7.25V48.6C5.35417 47.95 3.79688 46.799 2.57812 45.1469C1.35938 43.4948 0.75 41.6125 0.75 39.5V13.5H20.25V39.5C20.25 41.6125 19.6406 43.4948 18.4219 45.1469C17.2031 46.799 15.6458 47.95 13.75 48.6V59H20.25V65.5H0.75ZM7.25 29.75H13.75V20H7.25V29.75ZM33.25 65.5C31.4625 65.5 29.9323 64.8635 28.6594 63.5906C27.3865 62.3177 26.75 60.7875 26.75 59V27.9625C26.75 26.5542 27.1562 25.2948 27.9688 24.1844C28.7812 23.074 29.8375 22.275 31.1375 21.7875L34.225 20.65C34.9833 20.3792 35.5521 19.9865 35.9312 19.4719C36.3104 18.9573 36.5 18.3208 36.5 17.5625V3.75C36.5 2.82917 36.8115 2.05729 37.4344 1.43437C38.0573 0.811458 38.8292 0.5 39.75 0.5H49.5C50.4208 0.5 51.1927 0.811458 51.8156 1.43437C52.4385 2.05729 52.75 2.82917 52.75 3.75V17.5625C52.75 18.3208 52.9396 18.9573 53.3188 19.4719C53.6979 19.9865 54.2667 20.3792 55.025 20.65L58.1125 21.7875C59.4125 22.275 60.4688 23.074 61.2812 24.1844C62.0938 25.2948 62.5 26.5542 62.5 27.9625V59C62.5 60.7875 61.8635 62.3177 60.5906 63.5906C59.3177 64.8635 57.7875 65.5 56 65.5H33.25ZM43 10.25H46.25V7H43V10.25ZM33.25 33H56V27.9625L52.9125 26.825C50.8542 26.0667 49.2292 24.875 48.0375 23.25C46.8458 21.625 46.25 19.7833 46.25 17.725V16.75H43V17.725C43 19.7833 42.4042 21.625 41.2125 23.25C40.0208 24.875 38.3958 26.0667 36.3375 26.825L33.25 27.9625V33ZM33.25 59H56V52.5H33.25V59Z" fill="#1C1B1F"/>
</svg>
