<svg width="46" height="60" viewBox="0 0 46 60" fill="none" xmlns="http://www.w3.org/2000/svg">
<path d="M23 59.25C16.6625 59.25 11.2865 57.0427 6.87188 52.6281C2.45729 48.2135 0.25 42.8375 0.25 36.5C0.25 32.3292 0.940625 28.1313 2.32187 23.9062C3.70312 19.6812 5.49063 15.849 7.68438 12.4094C9.87813 8.96979 12.3292 6.16667 15.0375 4C17.7458 1.83333 20.4 0.75 23 0.75C25.6542 0.75 28.3219 1.83333 31.0031 4C33.6844 6.16667 36.1219 8.96979 38.3156 12.4094C40.5094 15.849 42.2969 19.6812 43.6781 23.9062C45.0594 28.1313 45.75 32.3292 45.75 36.5C45.75 42.8375 43.5427 48.2135 39.1281 52.6281C34.7135 57.0427 29.3375 59.25 23 59.25ZM26.25 49.5C27.1708 49.5 27.9427 49.1885 28.5656 48.5656C29.1885 47.9427 29.5 47.1708 29.5 46.25C29.5 45.3292 29.1885 44.5573 28.5656 43.9344C27.9427 43.3115 27.1708 43 26.25 43C23.5417 43 21.2396 42.0521 19.3438 40.1562C17.4479 38.2604 16.5 35.9583 16.5 33.25C16.5 32.3292 16.1885 31.5573 15.5656 30.9344C14.9427 30.3115 14.1708 30 13.25 30C12.3292 30 11.5573 30.3115 10.9344 30.9344C10.3115 31.5573 10 32.3292 10 33.25C10 37.7458 11.5844 41.5781 14.7531 44.7469C17.9219 47.9156 21.7542 49.5 26.25 49.5Z" fill="#1C1B1F"/>
</svg>
